<?xml version="1.0" standalone="no"?>
<!DOCTYPE svg PUBLIC "-//W3C//DTD SVG 20010904//EN"
 "http://www.w3.org/TR/2001/REC-SVG-20010904/DTD/svg10.dtd">
<svg version="1.0" xmlns="http://www.w3.org/2000/svg"
 width="300.000000pt" height="300.000000pt" viewBox="0 0 300.000000 300.000000"
 preserveAspectRatio="xMidYMid meet">
<metadata>
Created by potrace 1.10, written by Peter Selinger 2001-2011
</metadata>
<g transform="translate(0.000000,300.000000) scale(0.100000,-0.100000)"
fill="#000000" stroke="none">
<path d="M1589 2875 c-2 -2 -56 -5 -119 -6 -83 -2 -126 -7 -157 -20 -22 -10
-44 -15 -47 -12 -3 4 -6 2 -6 -4 0 -5 -6 -10 -13 -10 -11 0 -45 -16 -148 -70
-15 -7 -32 -20 -39 -28 -7 -8 -19 -15 -26 -15 -8 0 -14 -4 -14 -10 0 -5 -6
-10 -13 -10 -8 0 -33 -17 -56 -37 -23 -21 -58 -51 -79 -68 -49 -40 -146 -137
-204 -205 -26 -30 -56 -66 -67 -79 -12 -13 -21 -27 -21 -31 0 -3 -8 -15 -19
-26 -28 -31 -132 -184 -124 -184 3 0 -4 -11 -17 -25 -13 -14 -20 -25 -16 -25
4 0 -5 -16 -20 -35 -14 -19 -23 -35 -19 -35 5 0 0 -9 -9 -19 -10 -11 -19 -25
-20 -33 -4 -16 -16 -46 -55 -133 -17 -37 -29 -70 -27 -73 3 -2 -4 -22 -15 -44
-11 -22 -18 -42 -15 -45 3 -3 -1 -21 -9 -40 -8 -19 -17 -57 -19 -84 -3 -27 -8
-55 -12 -61 -11 -18 -13 -290 -3 -331 6 -21 12 -51 14 -67 4 -34 46 -153 56
-160 4 -3 11 -18 14 -33 4 -15 10 -27 14 -27 4 0 14 -15 23 -33 20 -43 114
-149 175 -198 35 -28 144 -99 152 -99 5 0 14 -7 21 -15 7 -8 16 -12 21 -9 5 3
9 1 9 -4 0 -8 67 -40 80 -38 3 1 20 -9 37 -22 18 -13 41 -25 52 -27 11 -2 31
-11 45 -20 14 -10 26 -14 26 -11 0 4 18 -3 40 -14 22 -11 40 -18 40 -15 0 2
22 -4 49 -15 27 -10 51 -17 53 -15 2 3 28 -4 57 -15 29 -11 56 -18 60 -16 4 3
33 -2 65 -10 32 -8 72 -12 90 -9 21 4 27 3 17 -3 -9 -7 2 -8 33 -5 25 3 46 2
46 -3 0 -5 71 -6 162 -3 90 4 174 5 188 2 21 -4 22 -3 10 7 -12 9 -10 10 13 6
15 -4 44 -2 65 3 20 6 55 13 77 15 22 3 60 12 84 21 24 8 46 13 49 11 2 -3 17
1 32 9 15 8 38 16 51 19 33 7 87 28 127 49 17 10 32 15 32 11 0 -4 6 -1 14 5
7 6 33 22 57 34 87 44 196 123 272 198 42 42 77 79 77 83 0 4 14 28 32 53 17
25 26 43 20 40 -5 -4 -1 12 10 35 18 38 20 53 13 162 -4 67 -8 133 -9 149 0
15 -5 27 -10 27 -4 0 -6 11 -4 25 3 14 1 22 -5 18 -5 -3 -6 3 -2 16 3 12 -1
44 -10 72 -9 28 -15 53 -12 56 3 3 -2 26 -11 52 -10 25 -18 51 -18 56 0 6 -6
24 -13 40 -7 17 -14 39 -16 50 -6 34 -31 96 -37 90 -3 -3 -9 9 -13 27 -4 18
-9 38 -10 45 -2 7 -13 27 -26 44 -13 18 -18 30 -13 26 10 -6 -1 19 -56 123
-13 25 -24 47 -25 50 0 5 -9 19 -43 75 -6 11 -21 39 -32 62 -11 23 -25 45 -31
48 -5 4 -15 17 -20 28 -5 12 -18 36 -28 52 -25 39 -59 100 -85 150 -11 22 -25
43 -30 47 -6 4 -7 8 -3 8 5 0 0 12 -10 28 -30 46 -43 66 -50 82 -19 41 -81
129 -117 165 -57 58 -132 115 -140 108 -3 -4 -6 -2 -6 4 0 6 -8 13 -17 15 -10
3 -22 6 -28 7 -5 2 -18 8 -29 13 -29 16 -178 49 -193 43 -8 -3 -11 0 -8 6 5 7
-5 8 -28 4 -19 -4 -44 -2 -55 4 -10 6 -21 9 -23 6z m189 -56 c229 -53 342
-152 484 -420 25 -47 77 -139 114 -203 220 -372 299 -539 369 -771 61 -203 90
-393 84 -541 -5 -110 -43 -184 -147 -286 -189 -185 -443 -303 -787 -364 -135
-24 -430 -24 -567 -1 -220 38 -419 104 -606 203 -287 150 -439 327 -503 583
-57 232 0 572 145 859 51 100 136 247 147 250 5 2 9 8 9 14 0 28 232 301 332
390 192 171 390 286 533 309 78 12 300 0 393 -22z"/>
<path d="M1540 2131 c-5 -11 -10 -33 -10 -49 0 -44 -13 -47 -25 -5 -9 33 -14
38 -40 38 -27 0 -30 -3 -30 -30 1 -16 4 -42 8 -57 11 -42 -6 -33 -28 15 -22
47 -52 56 -70 20 -9 -17 -15 -19 -29 -11 -26 15 -51 -12 -42 -46 l6 -25 36 24
c44 30 64 31 87 5 18 -21 57 -27 57 -9 0 19 26 38 40 29 17 -10 53 7 45 21 -4
5 -3 8 2 7 35 -9 71 41 56 79 -8 20 -51 16 -63 -6z"/>
<path d="M1629 2129 c-6 -12 -9 -30 -6 -40 3 -10 1 -22 -4 -25 -5 -3 -9 -10
-9 -15 0 -6 7 -3 16 6 14 14 19 14 33 2 28 -24 48 -26 66 -7 9 10 24 17 33 16
23 -4 42 18 42 48 0 19 -7 27 -25 32 -31 8 -51 -7 -59 -44 -7 -33 -23 -59 -31
-51 -3 4 -1 19 5 34 6 15 8 36 5 46 -9 26 -51 25 -66 -2z"/>
<path d="M1819 2093 c-30 -50 -33 -66 -9 -53 11 6 31 11 46 12 33 3 53 40 34
63 -21 25 -47 17 -71 -22z"/>
<path d="M1912 2067 c-40 -41 -40 -49 1 -45 24 2 31 -1 29 -12 -2 -10 6 -6 22
9 28 27 33 50 14 69 -19 19 -32 15 -66 -21z"/>
<path d="M2024 2031 c-46 -21 -64 -44 -56 -73 3 -14 8 -16 18 -7 7 6 35 16 60
23 55 14 75 36 55 60 -17 20 -27 20 -77 -3z"/>
<path d="M1212 1998 c-7 -7 -12 -17 -12 -23 0 -6 -12 -11 -27 -10 -22 0 -29
-5 -31 -23 -3 -18 -8 -21 -27 -16 -16 4 -27 0 -36 -14 -8 -11 -23 -21 -34 -23
-25 -5 -32 -51 -11 -68 12 -10 17 -7 28 16 7 15 27 35 43 43 17 9 53 30 80 48
28 17 58 32 68 32 9 0 17 6 17 13 0 16 -20 37 -35 37 -6 0 -16 -5 -23 -12z"/>
<path d="M2090 1963 c-14 -2 -43 -9 -65 -15 -33 -8 -36 -11 -22 -20 10 -5 43
-8 74 -6 53 3 57 2 63 -22 3 -14 23 -36 44 -50 31 -20 34 -25 19 -31 -25 -8
80 -33 106 -24 13 4 21 15 21 29 0 30 -35 45 -117 53 -62 6 -84 19 -41 25 29
4 36 37 12 55 -17 13 -44 15 -94 6z"/>
<path d="M2001 1858 c-17 -45 38 -72 74 -36 7 7 3 8 -11 4 -22 -7 -64 18 -52
30 5 4 19 2 32 -4 28 -12 41 -5 25 15 -18 21 -58 16 -68 -9z"/>
<path d="M1102 1828 c-33 -33 6 -82 56 -72 25 5 32 12 32 30 0 40 -61 69 -88
42z m28 -6 c0 -5 12 -14 27 -21 35 -16 17 -36 -20 -22 -26 10 -40 51 -17 51 6
0 10 -4 10 -8z"/>
<path d="M955 1809 c-4 -12 -2 -26 4 -32 18 -18 13 -24 -18 -19 -23 3 -30 0
-36 -19 -5 -16 -2 -26 9 -34 20 -15 21 -25 2 -25 -8 0 -16 -7 -20 -15 -6 -18
2 -45 15 -45 5 0 4 -9 -3 -21 -11 -17 -10 -22 6 -34 11 -8 29 -12 42 -9 19 5
22 2 17 -14 -10 -42 29 -186 78 -283 26 -53 56 -104 65 -113 16 -16 15 -19 -8
-44 -96 -103 -22 -262 122 -262 35 0 40 -3 40 -22 1 -58 102 -198 143 -198 29
0 19 24 -33 78 -54 56 -106 147 -90 157 6 3 10 13 10 22 0 13 -8 15 -46 9 -85
-11 -144 36 -144 116 0 42 31 93 67 111 42 22 100 30 109 16 5 -9 2 -10 -12
-5 -16 6 -16 4 4 -16 31 -32 42 -13 42 78 0 53 6 81 23 115 19 39 22 58 21
170 l0 127 34 16 c99 48 407 102 423 75 24 -42 86 -124 102 -133 14 -9 21 -7
33 8 19 27 18 30 -16 69 -58 66 -33 64 43 -4 61 -54 99 -63 105 -23 3 20 -38
65 -70 77 -25 8 -1 17 30 11 24 -5 40 -20 72 -69 83 -128 130 -288 130 -445 0
-94 -28 -335 -45 -394 -43 -146 -163 -248 -316 -270 -61 -9 -168 16 -236 54
-46 26 -54 28 -67 15 -22 -22 -12 -36 42 -67 169 -94 366 -70 505 61 63 59 98
120 123 211 15 54 18 104 18 295 0 222 -1 233 -27 318 -31 101 -55 152 -103
220 -39 53 -32 62 12 16 40 -43 62 -53 80 -38 8 6 14 19 14 29 0 21 -44 66
-84 87 -28 14 -29 14 -23 -6 7 -27 -11 -27 -57 0 -33 19 -36 19 -60 3 -14 -9
-26 -23 -26 -31 0 -11 -5 -13 -17 -8 -40 16 -56 17 -80 4 -23 -12 -27 -11 -47
12 -39 48 -56 52 -164 34 -124 -21 -277 -62 -311 -83 -49 -32 -52 -40 -45
-142 5 -84 3 -103 -17 -155 -12 -33 -24 -85 -26 -116 l-5 -57 -41 -5 c-23 -4
-54 -9 -68 -13 -25 -6 -30 0 -78 89 -50 92 -91 219 -91 280 0 21 -10 39 -36
62 -35 32 -36 36 -30 80 7 46 45 113 72 128 12 7 13 12 3 23 -18 22 -57 17
-64 -7z"/>
<path d="M1862 1798 c-19 -19 -14 -46 11 -63 28 -18 77 -16 77 3 0 7 -4 11
-10 7 -5 -3 -26 1 -46 10 -29 12 -35 18 -26 27 9 9 23 7 58 -10 44 -22 48 -17
16 21 -17 20 -62 23 -80 5z"/>
<path d="M2188 1788 c18 -18 15 -25 -15 -33 -24 -6 -21 -8 40 -37 55 -26 69
-29 82 -18 20 17 19 33 -4 54 -23 21 -122 53 -103 34z"/>
<path d="M1054 1679 c-21 -23 -20 -25 3 -51 20 -22 42 -23 71 -2 27 19 29 50
3 64 -30 16 -56 12 -77 -11z m81 -10 c9 -14 6 -16 -37 -24 -31 -6 -38 -4 -38
8 0 9 11 17 28 20 15 2 30 5 34 6 4 0 10 -4 13 -10z"/>
<path d="M1210 1660 c-19 -19 -22 -78 -4 -72 5 2 8 11 6 21 -3 20 33 57 42 42
3 -5 -4 -26 -16 -47 l-21 -37 21 12 c28 15 40 38 34 66 -5 31 -38 39 -62 15z"/>
<path d="M1666 1319 c-47 -37 -75 -119 -41 -119 8 0 15 7 15 16 0 8 13 29 29
45 23 22 39 29 69 29 48 0 57 8 35 32 -22 24 -74 23 -107 -3z"/>
<path d="M2058 1309 c-10 -5 -18 -17 -18 -26 0 -13 3 -14 12 -5 24 24 69 14
102 -23 35 -37 53 -44 62 -21 21 54 -99 110 -158 75z"/>
<path d="M1716 1178 c-33 -47 -8 -136 31 -112 32 20 26 134 -7 134 -5 0 -16
-10 -24 -22z"/>
<path d="M2086 1188 c-13 -42 -15 -70 -6 -92 13 -36 44 -34 60 3 17 42 -4 101
-37 101 -7 0 -15 -6 -17 -12z"/>
<path d="M1970 1064 c0 -3 11 -15 25 -26 40 -31 28 -88 -18 -88 -10 0 -32 9
-48 21 -30 21 -49 18 -49 -7 0 -21 83 -56 115 -48 53 13 75 94 35 134 -18 18
-60 28 -60 14z"/>
<path d="M1206 1020 c11 -4 33 -23 48 -40 21 -26 30 -30 39 -21 17 18 -44 71
-81 70 -24 0 -25 -1 -6 -9z"/>
<path d="M1744 846 c-43 -19 -64 -53 -64 -101 0 -118 127 -173 295 -130 62 16
102 45 91 64 -4 6 -18 8 -32 5 -21 -5 -24 -3 -24 22 0 16 -3 46 -6 67 -7 37
-6 37 27 37 19 0 41 5 49 10 11 7 -4 10 -50 10 -36 0 -92 7 -123 15 -71 18
-122 19 -163 1z m191 -42 c76 -11 47 -28 -56 -35 -52 -4 -109 -10 -127 -14
-36 -7 -41 3 -14 28 40 37 63 39 197 21z m-67 -106 c8 -8 15 -8 26 1 31 26 98
-11 70 -39 -17 -17 -156 -18 -187 -1 -34 18 -34 27 1 39 37 14 76 14 90 0z"/>
</g>
</svg>
